# xmcd
#
# Track frame offsets:
#	182
#	11797
#	25830
#	41012
#	54057
#	65952
#	78060
#	90722
#	104285
#	115447
#	127757
#	139020
#	151510
#	164315
#	175830
#	188875
#
# Disc length: 2699 seconds
#
# Revision: 1
# Processed by: cddbd v1.5.1PL0 Copyright (c) Steve Scherf et al.
# Submitted via: audiograbber 1.83.01
#
DISCID=c30a8910
DTITLE=Julia Lee and Her Boyfriends - Ugly Papa
DYEAR=1900
DGENRE=Blues
TTITLE0=Do You Want It?
TTITLE1=Dream Lucky Blues
TTITLE2=Lotus Blossom
TTITLE3=Ugly Papa
TTITLE4=Julia's Blues
TTITLE5=If You Hadn't Gone Away (I Wouldn't Be Where I Am)
TTITLE6=Bleeding Hearted Blues
TTITLE7=Oh, Chuck It (In a Bucket)
TTITLE8=It Won't Be Long
TTITLE9=Decent Woman Blues
TTITLE10=Scream in the Night
TTITLE11=I Know It's Wrong (The Diet Song)
TTITLE12=Bop and Rock Lullaby
TTITLE13=Goin' to Chicago Blues
TTITLE14=King Size Papa
TTITLE15=Scat You Cats
EXTD=
EXTT0=
EXTT1=
EXTT2=
EXTT3=
EXTT4=
EXTT5=
EXTT6=
EXTT7=
EXTT8=
EXTT9=
EXTT10=
EXTT11=
EXTT12=
EXTT13=
EXTT14=
EXTT15=
PLAYORDER=
